<svg width="193" height="72" fill="none" xmlns="http://www.w3.org/2000/svg"><path d="M127.129 16.4h-6.141c.603-4.074 2.769-5.253 4.33-5.253 2.308 0 2.592 2.323 1.811 5.252zm22.149 16.184 3.266-15.399c1.526-1.679 5.36-1.786 7.951-.786l2.165-10.218c-4.046-.857-6.389 1.215-8.874 4.287l.852-4.037h-11.323l-5.573 26.224h11.536v-.07zm-61.23-18.936h3.549l-2.13 9.432c-1.49 6.539 1.35 9.897 8.768 9.897 2.414 0 5.431-.286 7.135-.822l1.384-6.574c-.887.25-1.81.393-2.733.393-3.798 0-3.372-1.893-2.911-4.073l1.81-8.181h5.68l1.349-6.396h-5.644L105.867 0h-9.833c-1.526 6.038-2.272 7.646-6.744 7.646l-1.243 6.002zm-28.22 17.078c3.088 1.68 6.354 2.322 11.181 2.322 7.667 0 13.595-2.68 13.595-9.36 0-4.288-2.698-6.11-6.46-7.432-2.698-.964-4.686-1.5-4.686-2.572 0-.822 1.065-1.036 2.343-1.036 2.982 0 6.531 1 8.98 2.18l1.527-6.896c-3.266-1.358-6.673-2.108-10.578-2.108-7.738 0-12.92 3.037-12.92 9.253 0 4.788 3.194 6.538 6.07 7.539 3.194 1.107 4.791 1.393 4.791 2.465 0 .858-.923 1.143-2.342 1.143-3.23 0-7.17-1.393-9.868-3l-1.633 7.502zm75.145-6.538c-4.259 1.5-15.476 3.68-14.873-2.394h16.08c.71-2.036 1.207-4.216 1.207-6.252 0-5.967-4.188-9.754-11.252-9.754-9.584 0-16.825 6.788-16.825 16.006 0 7.181 4.472 11.326 13.666 11.326 3.478 0 7.134-.572 10.294-1.75l1.703-7.182zm42.134 8.396h11.501l3.23-15.435c.284-1.429.497-2.786.497-4.18 0-4.358-1.916-6.967-7.028-6.967-4.33 0-7.028 1.823-8.909 3.716l.709-3.323h-11.358l-5.573 26.225h11.501l3.585-16.971a3.818 3.818 0 0 1 3.301-1.858c1.455 0 2.307.822 1.917 2.608l-3.373 16.185z" fill="#1F1D1D"/><path d="M52.01 0H0v72h52.01V0z" fill="#C00"/><path d="M51.13 1.153 38.58 29.877l11.951 10.622-13.713.94-.07 13.62-8.32-8.563L.72 71.28l14.065-28.361-12.831.65 14.876-13.26L1.32.72l26.509 20.883L51.13 1.153z" fill="#fff"/></svg>